# xmcd
#
# Track frame offsets:
#	182
#	5285
#	22350
#	43292
#	59172
#	73727
#	95732
#	110605
#	130555
#	146047
#	158000
#	177232
#	192122
#
# Disc length: 2702 seconds
#
# Revision: 4
# Processed by: cddbd v1.5.2PL0 Copyright (c) Steve Scherf et al.
# Submitted via: audiograbber 1.83.01
#
DISCID=c00a8c0d
DTITLE=Sepp Hop - Sepp Hop
DYEAR=1998
DGENRE=Folk-Rock
TTITLE0=Mei Oida
TTITLE1=Wilma, Die Kuh
TTITLE2=I Bin Sauba
TTITLE3=Highbayer
TTITLE4=I Sag, I Geh Ned
TTITLE5=Leberkasrosen
TTITLE6=Bayrischer Zulu
TTITLE7=Ois Was I Wui Is Mei Ruah
TTITLE8=Titti Titti B‰ng B‰ng 
TTITLE9=Jawoi
TTITLE10=Autowahn
TTITLE11=Aamoi
TTITLE12=Hiasigableedlsaubanaschneﬂl
EXTD=YEAR: 1998
EXTT0=
EXTT1=
EXTT2=
EXTT3=
EXTT4=
EXTT5=
EXTT6=
EXTT7=
EXTT8=
EXTT9=
EXTT10=
EXTT11=
EXTT12=
PLAYORDER=
